# xmcd
#
# Track frame offsets: 
#        150
#        24460
#        54222
#        77012
#        100517
#        111557
#        127997
#        151120
#        179372
#        221470
#        245467
#        262377
#        281657
#        314307
#        330577
#
# Disc length: 4603 seconds
#
# Revision: 0
# Processed by: cddbd v1.4PL0 Copyright (c) Steve Scherf et al.
# Submitted via: ExactAudioCopy v0.90a11
#
DISCID=ca11f90f
DTITLE=Acker Bilk - Hits Blues and Classics
DYEAR=1900
DGENRE=
TTITLE0=Lousian-i-a
TTITLE1=Black and Tan Fantasy
TTITLE2=My Baby Just Cares for me
TTITLE3=Papa Dip
TTITLE4=That's my Home
TTITLE5=Nairobi
TTITLE6=Basin St Blues
TTITLE7=Mood Indigo
TTITLE8=Savoy Blues
TTITLE9=Sleepytime Down South
TTITLE10=Sweet Georgia Brown
TTITLE11=Bueno Sera
TTITLE12=Beale St Blues
TTITLE13=White Cliffs of Dover
TTITLE14=Stranger on the Shore
EXTD=
EXTT0=
EXTT1=
EXTT2=
EXTT3=
EXTT4=
EXTT5=
EXTT6=
EXTT7=
EXTT8=
EXTT9=
EXTT10=
EXTT11=
EXTT12=
EXTT13=
EXTT14=
PLAYORDER=
